# Blender v2.82 (sub 7) OBJ File: 'Shells.blend'
# www.blender.org
mtllib BigFanShell.mtl
o FanShell_FanShellMesh
v 0.059889 -0.003329 0.117429
v 0.086640 -0.002383 -0.124666
v 0.040460 -0.004633 0.090770
v 0.080548 -0.002982 0.053080
v 0.133335 -0.003325 -0.012234
v 0.037289 -0.003493 0.129981
v 0.042170 0.000307 -0.140365
v 0.019860 0.000005 0.090741
v 0.042596 0.012714 0.031586
v 0.062891 0.017883 -0.036534
v 0.127972 -0.003325 -0.077841
v 0.054734 0.015900 -0.091127
v 0.058453 -0.011257 0.117337
v 0.085204 -0.010311 -0.124758
v 0.039024 -0.012561 0.090679
v 0.079112 -0.010910 0.052989
v 0.131899 -0.011253 -0.012325
v 0.035853 -0.011421 0.129890
v 0.040734 -0.007621 -0.140456
v 0.018424 -0.007924 0.090650
v 0.041160 0.004786 0.031494
v 0.061455 0.009955 -0.036626
v 0.126536 -0.011253 -0.077932
v 0.053298 0.007972 -0.091218
v 0.000000 -0.002708 0.133033
v -0.059889 -0.003329 0.117429
v 0.000000 0.001115 -0.146625
v -0.086640 -0.002383 -0.124666
v 0.000000 0.005574 0.089764
v -0.040460 -0.004633 0.090770
v -0.080548 -0.002982 0.053080
v 0.000000 0.021976 0.015300
v -0.133335 -0.003325 -0.012234
v 0.000000 0.026426 -0.049517
v -0.037289 -0.003493 0.129981
v -0.042170 0.000307 -0.140365
v -0.019860 0.000005 0.090741
v -0.042596 0.012714 0.031586
v -0.062891 0.017883 -0.036534
v -0.127972 -0.003325 -0.077841
v 0.000000 0.019861 -0.102226
v -0.054734 0.015900 -0.091127
v 0.000000 -0.010636 0.132942
v -0.058453 -0.011257 0.117337
v 0.000000 -0.006814 -0.146716
v -0.085204 -0.010311 -0.124758
v 0.000000 -0.002354 0.089673
v -0.039024 -0.012561 0.090679
v -0.079112 -0.010910 0.052989
v 0.000000 0.014048 0.015209
v -0.131899 -0.011253 -0.012325
v 0.000000 0.018498 -0.049608
v -0.035853 -0.011421 0.129890
v -0.040734 -0.007621 -0.140456
v -0.018424 -0.007924 0.090650
v -0.041160 0.004786 0.031494
v -0.061455 0.009955 -0.036626
v -0.126536 -0.011253 -0.077932
v 0.000000 0.011933 -0.102317
v -0.053298 0.007972 -0.091218
vt 0.471679 0.911130
vt 0.471679 1.000000
vt 1.000000 1.000000
vt 1.000000 0.911130
vt 0.471679 0.000000
vt 0.471679 0.149177
vt 1.000000 0.149177
vt 1.000000 0.000000
vt 0.471679 0.572335
vt 1.000000 0.572335
vt 0.471679 0.805626
vt 1.000000 0.805626
vt 0.000000 0.572335
vt 0.000000 0.805626
vt 0.000000 0.149177
vt 0.000000 0.000000
vt 0.000000 0.911130
vt 0.000000 1.000000
vt 0.471679 0.911130
vt 1.000000 0.911130
vt 1.000000 1.000000
vt 0.471679 1.000000
vt 0.471679 0.000000
vt 1.000000 0.000000
vt 1.000000 0.149177
vt 0.471679 0.149177
vt 1.000000 0.572335
vt 0.471679 0.572335
vt 1.000000 0.805626
vt 0.471679 0.805626
vt 0.000000 0.572335
vt 0.000000 0.805626
vt 0.000000 0.149177
vt 0.000000 0.000000
vt 0.000000 0.911130
vt 0.000000 1.000000
vt 0.471679 0.911130
vt 1.000000 0.911130
vt 1.000000 1.000000
vt 0.471679 1.000000
vt 0.471679 0.000000
vt 1.000000 0.000000
vt 1.000000 0.149177
vt 0.471679 0.149177
vt 1.000000 0.572335
vt 0.471679 0.572335
vt 1.000000 0.805626
vt 0.471679 0.805626
vt 0.471679 0.911130
vt 0.471679 1.000000
vt 1.000000 1.000000
vt 1.000000 0.911130
vt 0.471679 0.000000
vt 0.471679 0.149177
vt 1.000000 0.149177
vt 1.000000 0.000000
vt 0.471679 0.572335
vt 1.000000 0.572335
vt 0.471679 0.805626
vt 1.000000 0.805626
vn -0.2414 -0.9300 0.2773
vn -0.0969 -0.9951 0.0211
vn -0.2207 -0.9338 -0.2817
vn -0.2515 -0.9524 -0.1722
vn -0.1406 -0.9857 -0.0928
vn -0.1622 -0.9580 -0.2363
vn -0.1139 -0.9866 -0.1168
vn -0.1093 -0.9284 0.3551
vn -0.1231 -0.9885 0.0881
vn -0.2821 -0.9582 0.0475
vn 0.2414 0.9300 -0.2773
vn 0.0969 0.9951 -0.0211
vn 0.2207 0.9338 0.2817
vn 0.2515 0.9524 0.1722
vn 0.1443 0.9851 0.0933
vn 0.1694 0.9566 0.2372
vn 0.1199 0.9861 0.1155
vn 0.1127 0.9279 -0.3554
vn 0.1262 0.9881 -0.0883
vn 0.2821 0.9582 -0.0475
vn -0.3299 0.0489 0.9428
vn -0.6819 0.1318 -0.7195
vn -0.9810 0.1768 0.0802
vn -0.4838 0.0976 -0.8697
vn -0.7424 0.1269 0.6578
vn -0.7690 0.1464 -0.6223
vn -0.1493 0.0021 0.9888
vn -0.8035 0.1389 0.5788
vn -0.0827 0.0190 -0.9964
vn 0.2414 -0.9300 0.2773
vn 0.0969 -0.9951 0.0211
vn 0.2207 -0.9338 -0.2817
vn 0.2515 -0.9524 -0.1722
vn 0.1406 -0.9857 -0.0928
vn 0.1622 -0.9580 -0.2363
vn 0.1139 -0.9866 -0.1168
vn 0.1093 -0.9284 0.3551
vn 0.1231 -0.9885 0.0881
vn 0.2821 -0.9582 0.0475
vn -0.2414 0.9300 -0.2773
vn -0.0969 0.9951 -0.0211
vn -0.2207 0.9338 0.2817
vn -0.2515 0.9524 0.1722
vn -0.1443 0.9851 0.0933
vn -0.1694 0.9566 0.2372
vn -0.1199 0.9861 0.1155
vn -0.1127 0.9279 -0.3554
vn -0.1262 0.9881 -0.0883
vn -0.2821 0.9582 -0.0475
vn 0.3299 0.0489 0.9428
vn 0.6819 0.1318 -0.7195
vn 0.9810 0.1768 0.0802
vn 0.4838 0.0976 -0.8697
vn 0.7424 0.1269 0.6578
vn 0.7690 0.1464 -0.6223
vn 0.1493 0.0021 0.9888
vn 0.8035 0.1389 0.5788
vn 0.0827 0.0190 -0.9964
usemtl SandDollar.002
s off
f 12/1/1 7/2/1 2/3/1 11/4/1
f 6/5/2 8/6/2 3/7/2 1/8/2
f 8/6/3 9/9/3 4/10/3 3/7/3
f 9/9/4 10/11/4 5/12/4 4/10/4
f 32/13/5 34/14/5 10/11/5 9/9/5
f 29/15/6 32/13/6 9/9/6 8/6/6
f 25/16/7 29/15/7 8/6/7 6/5/7
f 41/17/8 27/18/8 7/2/8 12/1/8
f 34/14/9 41/17/9 12/1/9 10/11/9
f 10/11/10 12/1/10 11/4/10 5/12/10
f 24/19/11 23/20/11 14/21/11 19/22/11
f 18/23/12 13/24/12 15/25/12 20/26/12
f 20/26/13 15/25/13 16/27/13 21/28/13
f 21/28/14 16/27/14 17/29/14 22/30/14
f 50/31/15 21/28/15 22/30/15 52/32/15
f 47/33/16 20/26/16 21/28/16 50/31/16
f 43/34/17 18/23/17 20/26/17 47/33/17
f 59/35/18 24/19/18 19/22/18 45/36/18
f 52/32/19 22/30/19 24/19/19 59/35/19
f 22/30/20 17/29/20 23/20/20 24/19/20
f 2/3/21 7/2/21 19/22/21 14/21/21
f 3/7/22 4/10/22 16/27/22 15/25/22
f 5/12/23 11/4/23 23/20/23 17/29/23
f 6/5/24 1/8/24 13/24/24 18/23/24
f 11/4/25 2/3/25 14/21/25 23/20/25
f 4/10/26 5/12/26 17/29/26 16/27/26
f 7/2/27 27/18/27 45/36/27 19/22/27
f 1/8/28 3/7/28 15/25/28 13/24/28
f 25/16/29 6/5/29 18/23/29 43/34/29
f 42/37/30 40/38/30 28/39/30 36/40/30
f 35/41/31 26/42/31 30/43/31 37/44/31
f 37/44/32 30/43/32 31/45/32 38/46/32
f 38/46/33 31/45/33 33/47/33 39/48/33
f 32/13/34 38/46/34 39/48/34 34/14/34
f 29/15/35 37/44/35 38/46/35 32/13/35
f 25/16/36 35/41/36 37/44/36 29/15/36
f 41/17/37 42/37/37 36/40/37 27/18/37
f 34/14/38 39/48/38 42/37/38 41/17/38
f 39/48/39 33/47/39 40/38/39 42/37/39
f 60/49/40 54/50/40 46/51/40 58/52/40
f 53/53/41 55/54/41 48/55/41 44/56/41
f 55/54/42 56/57/42 49/58/42 48/55/42
f 56/57/43 57/59/43 51/60/43 49/58/43
f 50/31/44 52/32/44 57/59/44 56/57/44
f 47/33/45 50/31/45 56/57/45 55/54/45
f 43/34/46 47/33/46 55/54/46 53/53/46
f 59/35/47 45/36/47 54/50/47 60/49/47
f 52/32/48 59/35/48 60/49/48 57/59/48
f 57/59/49 60/49/49 58/52/49 51/60/49
f 28/39/50 46/51/50 54/50/50 36/40/50
f 30/43/51 48/55/51 49/58/51 31/45/51
f 33/47/52 51/60/52 58/52/52 40/38/52
f 35/41/53 53/53/53 44/56/53 26/42/53
f 40/38/54 58/52/54 46/51/54 28/39/54
f 31/45/55 49/58/55 51/60/55 33/47/55
f 36/40/56 54/50/56 45/36/56 27/18/56
f 26/42/57 44/56/57 48/55/57 30/43/57
f 25/16/58 43/34/58 53/53/58 35/41/58
